<mxfile host="Electron" modified="2024-04-06T14:29:41.485Z" agent="Mozilla/5.0 (Windows NT 10.0; Win64; x64) AppleWebKit/537.36 (KHTML, like Gecko) draw.io/24.1.0 Chrome/120.0.6099.109 Electron/28.1.0 Safari/537.36" etag="urNw2iSCJN8MMrbSfE3M" version="24.1.0" type="device">
  <diagram name="第 1 页" id="90liVpHiz8VELE6X2CEh">
    <mxGraphModel dx="2665" dy="1069" grid="1" gridSize="10" guides="1" tooltips="1" connect="1" arrows="1" fold="1" page="1" pageScale="1" pageWidth="827" pageHeight="1169" math="0" shadow="0">
      <root>
        <mxCell id="0" />
        <mxCell id="1" parent="0" />
        <mxCell id="85VeoSjO9mp2CwGxO-GM-1" value="" style="rounded=1;whiteSpace=wrap;html=1;fillColor=none;strokeColor=#ffe6cc;strokeWidth=2;" vertex="1" parent="1">
          <mxGeometry x="110" y="270" width="280" height="320" as="geometry" />
        </mxCell>
        <mxCell id="85VeoSjO9mp2CwGxO-GM-32" value="" style="rounded=1;whiteSpace=wrap;html=1;strokeColor=#f5f5f5;strokeWidth=1;shadow=1;" vertex="1" parent="1">
          <mxGeometry x="120" y="430" width="260" height="150" as="geometry" />
        </mxCell>
        <mxCell id="85VeoSjO9mp2CwGxO-GM-138" value="" style="rounded=1;whiteSpace=wrap;html=1;fillColor=none;dashed=1;dashPattern=8 8;strokeColor=#f0a30a;strokeWidth=2;" vertex="1" parent="1">
          <mxGeometry x="227.5" y="510" width="42.5" height="20" as="geometry" />
        </mxCell>
        <mxCell id="85VeoSjO9mp2CwGxO-GM-75" value="" style="rounded=1;whiteSpace=wrap;html=1;fillColor=none;dashed=1;dashPattern=8 8;strokeColor=#cce290;strokeWidth=2;" vertex="1" parent="1">
          <mxGeometry x="290" y="500" width="80" height="75" as="geometry" />
        </mxCell>
        <mxCell id="85VeoSjO9mp2CwGxO-GM-73" value="" style="rounded=1;whiteSpace=wrap;html=1;fillColor=none;dashed=1;dashPattern=8 8;strokeColor=#76addc;strokeWidth=2;" vertex="1" parent="1">
          <mxGeometry x="130" y="520" width="80" height="55" as="geometry" />
        </mxCell>
        <mxCell id="85VeoSjO9mp2CwGxO-GM-69" value="" style="rounded=1;whiteSpace=wrap;html=1;fillColor=none;dashed=1;dashPattern=8 8;strokeColor=#ffced1;strokeWidth=2;" vertex="1" parent="1">
          <mxGeometry x="185" y="430" width="95" height="60" as="geometry" />
        </mxCell>
        <mxCell id="85VeoSjO9mp2CwGxO-GM-33" value="" style="ellipse;whiteSpace=wrap;html=1;aspect=fixed;fillColor=#f5f5f5;fontColor=#333333;strokeColor=#ffced1;gradientColor=none;" vertex="1" parent="1">
          <mxGeometry x="210" y="440" width="10" height="10" as="geometry" />
        </mxCell>
        <mxCell id="85VeoSjO9mp2CwGxO-GM-34" value="" style="ellipse;whiteSpace=wrap;html=1;aspect=fixed;fillColor=#f5f5f5;fontColor=#333333;strokeColor=#ffced1;gradientColor=none;" vertex="1" parent="1">
          <mxGeometry x="190" y="470" width="10" height="10" as="geometry" />
        </mxCell>
        <mxCell id="85VeoSjO9mp2CwGxO-GM-35" value="" style="ellipse;whiteSpace=wrap;html=1;aspect=fixed;fillColor=#f5f5f5;fontColor=#333333;strokeColor=#ffced1;gradientColor=none;" vertex="1" parent="1">
          <mxGeometry x="220" y="460" width="10" height="10" as="geometry" />
        </mxCell>
        <mxCell id="85VeoSjO9mp2CwGxO-GM-36" value="" style="ellipse;whiteSpace=wrap;html=1;aspect=fixed;fillColor=#f5f5f5;fontColor=#333333;strokeColor=#ffced1;gradientColor=none;" vertex="1" parent="1">
          <mxGeometry x="260" y="460" width="10" height="10" as="geometry" />
        </mxCell>
        <mxCell id="85VeoSjO9mp2CwGxO-GM-37" value="" style="ellipse;whiteSpace=wrap;html=1;aspect=fixed;fillColor=#f5f5f5;fontColor=#333333;strokeColor=#76addc;gradientColor=none;" vertex="1" parent="1">
          <mxGeometry x="140" y="530" width="10" height="10" as="geometry" />
        </mxCell>
        <mxCell id="85VeoSjO9mp2CwGxO-GM-38" value="" style="ellipse;whiteSpace=wrap;html=1;aspect=fixed;fillColor=#f5f5f5;fontColor=#333333;strokeColor=#76addc;gradientColor=none;" vertex="1" parent="1">
          <mxGeometry x="150" y="560" width="10" height="10" as="geometry" />
        </mxCell>
        <mxCell id="85VeoSjO9mp2CwGxO-GM-39" value="" style="ellipse;whiteSpace=wrap;html=1;aspect=fixed;fillColor=#f5f5f5;fontColor=#333333;strokeColor=#76addc;gradientColor=none;" vertex="1" parent="1">
          <mxGeometry x="190" y="550" width="10" height="10" as="geometry" />
        </mxCell>
        <mxCell id="85VeoSjO9mp2CwGxO-GM-40" value="" style="ellipse;whiteSpace=wrap;html=1;aspect=fixed;fillColor=#f5f5f5;fontColor=#333333;strokeColor=#cce290;gradientColor=none;" vertex="1" parent="1">
          <mxGeometry x="310" y="510" width="10" height="10" as="geometry" />
        </mxCell>
        <mxCell id="85VeoSjO9mp2CwGxO-GM-41" value="" style="ellipse;whiteSpace=wrap;html=1;aspect=fixed;fillColor=#f5f5f5;fontColor=#333333;strokeColor=#cce290;gradientColor=none;" vertex="1" parent="1">
          <mxGeometry x="340" y="520" width="10" height="10" as="geometry" />
        </mxCell>
        <mxCell id="85VeoSjO9mp2CwGxO-GM-42" value="" style="ellipse;whiteSpace=wrap;html=1;aspect=fixed;fillColor=#f5f5f5;fontColor=#333333;strokeColor=#cce290;gradientColor=none;" vertex="1" parent="1">
          <mxGeometry x="320" y="540" width="10" height="10" as="geometry" />
        </mxCell>
        <mxCell id="85VeoSjO9mp2CwGxO-GM-43" value="" style="ellipse;whiteSpace=wrap;html=1;aspect=fixed;fillColor=#f5f5f5;fontColor=#333333;strokeColor=#cce290;gradientColor=none;" vertex="1" parent="1">
          <mxGeometry x="350" y="550" width="10" height="10" as="geometry" />
        </mxCell>
        <mxCell id="85VeoSjO9mp2CwGxO-GM-44" value="" style="ellipse;whiteSpace=wrap;html=1;aspect=fixed;fillColor=#f5f5f5;fontColor=#333333;strokeColor=#cce290;gradientColor=none;" vertex="1" parent="1">
          <mxGeometry x="300" y="560" width="10" height="10" as="geometry" />
        </mxCell>
        <mxCell id="85VeoSjO9mp2CwGxO-GM-45" value="" style="ellipse;whiteSpace=wrap;html=1;aspect=fixed;fillColor=#f5f5f5;fontColor=#333333;strokeColor=#cce290;gradientColor=none;" vertex="1" parent="1">
          <mxGeometry x="330" y="550" width="10" height="10" as="geometry" />
        </mxCell>
        <mxCell id="85VeoSjO9mp2CwGxO-GM-46" value="&lt;span style=&quot;font-size: 18px;&quot;&gt;......&lt;/span&gt;" style="text;html=1;align=center;verticalAlign=middle;whiteSpace=wrap;rounded=0;fontColor=#f0a30a;" vertex="1" parent="1">
          <mxGeometry x="227.5" y="510" width="40" height="20" as="geometry" />
        </mxCell>
        <mxCell id="85VeoSjO9mp2CwGxO-GM-47" value="Graph Clustering" style="text;html=1;align=center;verticalAlign=middle;whiteSpace=wrap;rounded=0;fontSize=20;fontColor=#333333;" vertex="1" parent="1">
          <mxGeometry x="120" y="280" width="260" height="30" as="geometry" />
        </mxCell>
        <mxCell id="85VeoSjO9mp2CwGxO-GM-66" value="&lt;font style=&quot;font-size: 18px;&quot;&gt;Quantum Graph Normalized Cut&lt;/font&gt;" style="rounded=1;whiteSpace=wrap;html=1;fillColor=#b1ddf0;strokeColor=#b1ddf0;fontColor=#333333;" vertex="1" parent="1">
          <mxGeometry x="120" y="320" width="130" height="100" as="geometry" />
        </mxCell>
        <mxCell id="85VeoSjO9mp2CwGxO-GM-67" value="&lt;font style=&quot;font-size: 18px;&quot;&gt;Q-means&lt;/font&gt;" style="rounded=1;whiteSpace=wrap;html=1;fillColor=#b0e3e6;strokeColor=none;" vertex="1" parent="1">
          <mxGeometry x="270" y="320" width="110" height="100" as="geometry" />
        </mxCell>
        <mxCell id="85VeoSjO9mp2CwGxO-GM-77" value="" style="rounded=1;whiteSpace=wrap;html=1;fillColor=none;strokeColor=#b0e3e6;strokeWidth=2;" vertex="1" parent="1">
          <mxGeometry x="-180" y="324.88" width="280" height="200" as="geometry" />
        </mxCell>
        <mxCell id="85VeoSjO9mp2CwGxO-GM-78" value="" style="rounded=1;whiteSpace=wrap;html=1;strokeColor=#f5f5f5;strokeWidth=1;shadow=1;" vertex="1" parent="1">
          <mxGeometry x="-170" y="364.88" width="260" height="150" as="geometry" />
        </mxCell>
        <mxCell id="85VeoSjO9mp2CwGxO-GM-96" value="Reading Dataset" style="text;html=1;align=center;verticalAlign=middle;whiteSpace=wrap;rounded=0;fontSize=20;fontColor=#333333;" vertex="1" parent="1">
          <mxGeometry x="-170" y="329.88" width="260" height="30" as="geometry" />
        </mxCell>
        <mxCell id="85VeoSjO9mp2CwGxO-GM-99" value="" style="ellipse;whiteSpace=wrap;html=1;aspect=fixed;fillColor=#f5f5f5;fontColor=#333333;strokeColor=#647687;gradientColor=none;" vertex="1" parent="1">
          <mxGeometry x="-80" y="374.88" width="10" height="10" as="geometry" />
        </mxCell>
        <mxCell id="85VeoSjO9mp2CwGxO-GM-100" value="" style="ellipse;whiteSpace=wrap;html=1;aspect=fixed;fillColor=#f5f5f5;fontColor=#333333;strokeColor=#647687;gradientColor=none;" vertex="1" parent="1">
          <mxGeometry x="-100" y="404.88" width="10" height="10" as="geometry" />
        </mxCell>
        <mxCell id="85VeoSjO9mp2CwGxO-GM-101" value="" style="ellipse;whiteSpace=wrap;html=1;aspect=fixed;fillColor=#f5f5f5;fontColor=#333333;strokeColor=#647687;gradientColor=none;" vertex="1" parent="1">
          <mxGeometry x="-70" y="394.88" width="10" height="10" as="geometry" />
        </mxCell>
        <mxCell id="85VeoSjO9mp2CwGxO-GM-102" value="" style="ellipse;whiteSpace=wrap;html=1;aspect=fixed;fillColor=#f5f5f5;fontColor=#333333;strokeColor=#647687;gradientColor=none;" vertex="1" parent="1">
          <mxGeometry x="-30" y="394.88" width="10" height="10" as="geometry" />
        </mxCell>
        <mxCell id="85VeoSjO9mp2CwGxO-GM-103" value="" style="ellipse;whiteSpace=wrap;html=1;aspect=fixed;fillColor=#f5f5f5;fontColor=#333333;strokeColor=#647687;gradientColor=none;" vertex="1" parent="1">
          <mxGeometry x="-150" y="464.88" width="10" height="10" as="geometry" />
        </mxCell>
        <mxCell id="85VeoSjO9mp2CwGxO-GM-104" value="" style="ellipse;whiteSpace=wrap;html=1;aspect=fixed;fillColor=#f5f5f5;fontColor=#333333;strokeColor=#647687;gradientColor=none;" vertex="1" parent="1">
          <mxGeometry x="-140" y="494.88" width="10" height="10" as="geometry" />
        </mxCell>
        <mxCell id="85VeoSjO9mp2CwGxO-GM-105" value="" style="ellipse;whiteSpace=wrap;html=1;aspect=fixed;fillColor=#f5f5f5;fontColor=#333333;strokeColor=#647687;gradientColor=none;" vertex="1" parent="1">
          <mxGeometry x="-100" y="484.88" width="10" height="10" as="geometry" />
        </mxCell>
        <mxCell id="85VeoSjO9mp2CwGxO-GM-106" value="" style="ellipse;whiteSpace=wrap;html=1;aspect=fixed;fillColor=#f5f5f5;fontColor=#333333;strokeColor=#647687;gradientColor=none;" vertex="1" parent="1">
          <mxGeometry x="20" y="444.88" width="10" height="10" as="geometry" />
        </mxCell>
        <mxCell id="85VeoSjO9mp2CwGxO-GM-107" value="" style="ellipse;whiteSpace=wrap;html=1;aspect=fixed;fillColor=#f5f5f5;fontColor=#333333;strokeColor=#647687;gradientColor=none;" vertex="1" parent="1">
          <mxGeometry x="50" y="454.88" width="10" height="10" as="geometry" />
        </mxCell>
        <mxCell id="85VeoSjO9mp2CwGxO-GM-108" value="" style="ellipse;whiteSpace=wrap;html=1;aspect=fixed;fillColor=#f5f5f5;fontColor=#333333;strokeColor=#647687;gradientColor=none;" vertex="1" parent="1">
          <mxGeometry x="30" y="474.88" width="10" height="10" as="geometry" />
        </mxCell>
        <mxCell id="85VeoSjO9mp2CwGxO-GM-109" value="" style="ellipse;whiteSpace=wrap;html=1;aspect=fixed;fillColor=#f5f5f5;fontColor=#333333;strokeColor=#647687;gradientColor=none;" vertex="1" parent="1">
          <mxGeometry x="60" y="484.88" width="10" height="10" as="geometry" />
        </mxCell>
        <mxCell id="85VeoSjO9mp2CwGxO-GM-110" value="" style="ellipse;whiteSpace=wrap;html=1;aspect=fixed;fillColor=#f5f5f5;fontColor=#333333;strokeColor=#647687;gradientColor=none;" vertex="1" parent="1">
          <mxGeometry x="10" y="494.88" width="10" height="10" as="geometry" />
        </mxCell>
        <mxCell id="85VeoSjO9mp2CwGxO-GM-111" value="" style="ellipse;whiteSpace=wrap;html=1;aspect=fixed;fillColor=#f5f5f5;fontColor=#333333;strokeColor=#647687;gradientColor=none;" vertex="1" parent="1">
          <mxGeometry x="40" y="484.88" width="10" height="10" as="geometry" />
        </mxCell>
        <mxCell id="85VeoSjO9mp2CwGxO-GM-112" value="&lt;span style=&quot;font-size: 18px;&quot;&gt;......&lt;/span&gt;" style="text;html=1;align=center;verticalAlign=middle;whiteSpace=wrap;rounded=0;fontColor=#647687;" vertex="1" parent="1">
          <mxGeometry x="-70" y="434.88" width="60" height="30" as="geometry" />
        </mxCell>
        <mxCell id="85VeoSjO9mp2CwGxO-GM-113" value="" style="shape=flexArrow;endArrow=classic;html=1;rounded=0;fillColor=#cce5ff;strokeColor=none;" edge="1" parent="1">
          <mxGeometry width="50" height="50" relative="1" as="geometry">
            <mxPoint x="90" y="429.99999999999994" as="sourcePoint" />
            <mxPoint x="130" y="430" as="targetPoint" />
          </mxGeometry>
        </mxCell>
        <mxCell id="85VeoSjO9mp2CwGxO-GM-114" value="" style="rounded=1;whiteSpace=wrap;html=1;fillColor=none;strokeColor=#ffe6cc;strokeWidth=2;" vertex="1" parent="1">
          <mxGeometry x="400" y="250.13" width="280" height="150.25" as="geometry" />
        </mxCell>
        <mxCell id="85VeoSjO9mp2CwGxO-GM-115" value="" style="rounded=1;whiteSpace=wrap;html=1;strokeColor=#f5f5f5;strokeWidth=1;shadow=1;" vertex="1" parent="1">
          <mxGeometry x="410" y="284.38" width="260" height="110" as="geometry" />
        </mxCell>
        <mxCell id="85VeoSjO9mp2CwGxO-GM-120" value="" style="ellipse;whiteSpace=wrap;html=1;aspect=fixed;fillColor=#ffced1;fontColor=#333333;strokeColor=#ffced1;gradientColor=none;" vertex="1" parent="1">
          <mxGeometry x="512.5" y="289.38" width="15" height="15" as="geometry" />
        </mxCell>
        <mxCell id="85VeoSjO9mp2CwGxO-GM-123" value="" style="ellipse;whiteSpace=wrap;html=1;aspect=fixed;fillColor=#76addc;fontColor=#333333;strokeColor=#76addc;gradientColor=none;" vertex="1" parent="1">
          <mxGeometry x="450.5" y="374.38" width="15" height="15" as="geometry" />
        </mxCell>
        <mxCell id="85VeoSjO9mp2CwGxO-GM-128" value="" style="ellipse;whiteSpace=wrap;html=1;aspect=fixed;fillColor=#cce290;fontColor=#333333;strokeColor=#cce290;gradientColor=none;" vertex="1" parent="1">
          <mxGeometry x="600" y="374.38" width="15" height="15" as="geometry" />
        </mxCell>
        <mxCell id="85VeoSjO9mp2CwGxO-GM-133" value="Encapsulation of Clusters" style="text;html=1;align=center;verticalAlign=middle;whiteSpace=wrap;rounded=0;fontSize=20;fontColor=#333333;" vertex="1" parent="1">
          <mxGeometry x="410" y="250.13" width="260" height="30" as="geometry" />
        </mxCell>
        <mxCell id="85VeoSjO9mp2CwGxO-GM-141" value="" style="ellipse;whiteSpace=wrap;html=1;aspect=fixed;fillColor=#f0a30a;fontColor=#333333;strokeColor=#f0a30a;gradientColor=none;" vertex="1" parent="1">
          <mxGeometry x="540" y="354.38" width="15" height="15" as="geometry" />
        </mxCell>
        <mxCell id="85VeoSjO9mp2CwGxO-GM-153" value="" style="shape=flexArrow;endArrow=classic;html=1;rounded=0;fillColor=#cce5ff;strokeColor=none;" edge="1" parent="1">
          <mxGeometry width="50" height="50" relative="1" as="geometry">
            <mxPoint x="380" y="324.8399999999999" as="sourcePoint" />
            <mxPoint x="420" y="324.84" as="targetPoint" />
          </mxGeometry>
        </mxCell>
        <mxCell id="85VeoSjO9mp2CwGxO-GM-175" value="" style="rounded=1;whiteSpace=wrap;html=1;fillColor=none;strokeColor=#CDA2BE;strokeWidth=2;" vertex="1" parent="1">
          <mxGeometry x="690" y="250.13" width="280" height="150.25" as="geometry" />
        </mxCell>
        <mxCell id="85VeoSjO9mp2CwGxO-GM-176" value="" style="rounded=1;whiteSpace=wrap;html=1;strokeColor=#f5f5f5;strokeWidth=1;shadow=1;" vertex="1" parent="1">
          <mxGeometry x="700" y="284.38" width="260" height="110" as="geometry" />
        </mxCell>
        <mxCell id="85VeoSjO9mp2CwGxO-GM-177" value="" style="ellipse;whiteSpace=wrap;html=1;aspect=fixed;fillColor=#ffced1;fontColor=#333333;strokeColor=#ffced1;gradientColor=none;" vertex="1" parent="1">
          <mxGeometry x="802.5" y="289.38" width="15" height="15" as="geometry" />
        </mxCell>
        <mxCell id="85VeoSjO9mp2CwGxO-GM-178" value="" style="ellipse;whiteSpace=wrap;html=1;aspect=fixed;fillColor=#76addc;fontColor=#333333;strokeColor=#76addc;gradientColor=none;" vertex="1" parent="1">
          <mxGeometry x="740.5" y="374.38" width="15" height="15" as="geometry" />
        </mxCell>
        <mxCell id="85VeoSjO9mp2CwGxO-GM-179" value="" style="ellipse;whiteSpace=wrap;html=1;aspect=fixed;fillColor=#cce290;fontColor=#333333;strokeColor=#cce290;gradientColor=none;" vertex="1" parent="1">
          <mxGeometry x="890" y="374.38" width="15" height="15" as="geometry" />
        </mxCell>
        <mxCell id="85VeoSjO9mp2CwGxO-GM-180" value="Arranging Sequence for Clusters" style="text;html=1;align=center;verticalAlign=middle;whiteSpace=wrap;rounded=0;fontSize=16;fontColor=#333333;" vertex="1" parent="1">
          <mxGeometry x="700" y="250.13" width="260" height="30" as="geometry" />
        </mxCell>
        <mxCell id="85VeoSjO9mp2CwGxO-GM-181" value="" style="ellipse;whiteSpace=wrap;html=1;aspect=fixed;fillColor=#f0a30a;fontColor=#333333;strokeColor=#f0a30a;gradientColor=none;" vertex="1" parent="1">
          <mxGeometry x="830" y="354.38" width="15" height="15" as="geometry" />
        </mxCell>
        <mxCell id="85VeoSjO9mp2CwGxO-GM-182" value="" style="endArrow=none;html=1;rounded=0;entryX=0;entryY=1;entryDx=0;entryDy=0;exitX=1;exitY=0;exitDx=0;exitDy=0;strokeColor=#333333;" edge="1" parent="1" source="85VeoSjO9mp2CwGxO-GM-178" target="85VeoSjO9mp2CwGxO-GM-177">
          <mxGeometry width="50" height="50" relative="1" as="geometry">
            <mxPoint x="750" y="240.38" as="sourcePoint" />
            <mxPoint x="800" y="190.38" as="targetPoint" />
          </mxGeometry>
        </mxCell>
        <mxCell id="85VeoSjO9mp2CwGxO-GM-183" value="" style="endArrow=none;html=1;rounded=0;entryX=0;entryY=0.5;entryDx=0;entryDy=0;exitX=1;exitY=0.5;exitDx=0;exitDy=0;" edge="1" parent="1" source="85VeoSjO9mp2CwGxO-GM-178" target="85VeoSjO9mp2CwGxO-GM-179">
          <mxGeometry width="50" height="50" relative="1" as="geometry">
            <mxPoint x="763" y="386.38" as="sourcePoint" />
            <mxPoint x="815" y="312.38" as="targetPoint" />
          </mxGeometry>
        </mxCell>
        <mxCell id="85VeoSjO9mp2CwGxO-GM-184" value="" style="endArrow=none;html=1;rounded=0;entryX=1;entryY=0.5;entryDx=0;entryDy=0;exitX=0;exitY=0;exitDx=0;exitDy=0;" edge="1" parent="1" source="85VeoSjO9mp2CwGxO-GM-179" target="85VeoSjO9mp2CwGxO-GM-181">
          <mxGeometry width="50" height="50" relative="1" as="geometry">
            <mxPoint x="773" y="396.38" as="sourcePoint" />
            <mxPoint x="825" y="322.38" as="targetPoint" />
          </mxGeometry>
        </mxCell>
        <mxCell id="85VeoSjO9mp2CwGxO-GM-185" value="" style="endArrow=none;html=1;rounded=0;entryX=1;entryY=1;entryDx=0;entryDy=0;exitX=0.5;exitY=0;exitDx=0;exitDy=0;strokeColor=#333333;" edge="1" parent="1" source="85VeoSjO9mp2CwGxO-GM-181" target="85VeoSjO9mp2CwGxO-GM-177">
          <mxGeometry width="50" height="50" relative="1" as="geometry">
            <mxPoint x="783" y="406.38" as="sourcePoint" />
            <mxPoint x="835" y="332.38" as="targetPoint" />
          </mxGeometry>
        </mxCell>
        <mxCell id="85VeoSjO9mp2CwGxO-GM-186" value="" style="rounded=1;whiteSpace=wrap;html=1;fillColor=none;strokeColor=#67AB9F;strokeWidth=2;" vertex="1" parent="1">
          <mxGeometry x="400" y="410.13" width="280" height="199.75" as="geometry" />
        </mxCell>
        <mxCell id="85VeoSjO9mp2CwGxO-GM-187" value="" style="rounded=1;whiteSpace=wrap;html=1;strokeColor=#f5f5f5;strokeWidth=1;shadow=1;" vertex="1" parent="1">
          <mxGeometry x="410" y="447.88" width="260" height="150" as="geometry" />
        </mxCell>
        <mxCell id="85VeoSjO9mp2CwGxO-GM-188" value="" style="rounded=1;whiteSpace=wrap;html=1;fillColor=none;dashed=1;dashPattern=8 8;strokeColor=#f0a30a;strokeWidth=2;" vertex="1" parent="1">
          <mxGeometry x="517.5" y="527.88" width="42.5" height="20" as="geometry" />
        </mxCell>
        <mxCell id="85VeoSjO9mp2CwGxO-GM-189" value="" style="rounded=1;whiteSpace=wrap;html=1;fillColor=none;dashed=1;dashPattern=8 8;strokeColor=#cce290;strokeWidth=2;" vertex="1" parent="1">
          <mxGeometry x="580" y="517.88" width="80" height="75" as="geometry" />
        </mxCell>
        <mxCell id="85VeoSjO9mp2CwGxO-GM-190" value="" style="rounded=1;whiteSpace=wrap;html=1;fillColor=none;dashed=1;dashPattern=8 8;strokeColor=#76addc;strokeWidth=2;" vertex="1" parent="1">
          <mxGeometry x="420" y="537.88" width="80" height="55" as="geometry" />
        </mxCell>
        <mxCell id="85VeoSjO9mp2CwGxO-GM-191" value="" style="rounded=1;whiteSpace=wrap;html=1;fillColor=none;dashed=1;dashPattern=8 8;strokeColor=#ffced1;strokeWidth=2;" vertex="1" parent="1">
          <mxGeometry x="475" y="447.88" width="95" height="60" as="geometry" />
        </mxCell>
        <mxCell id="85VeoSjO9mp2CwGxO-GM-192" value="" style="ellipse;whiteSpace=wrap;html=1;aspect=fixed;fillColor=#ffced1;fontColor=#333333;strokeColor=#ffced1;gradientColor=none;" vertex="1" parent="1">
          <mxGeometry x="500" y="457.88" width="10" height="10" as="geometry" />
        </mxCell>
        <mxCell id="85VeoSjO9mp2CwGxO-GM-193" value="" style="ellipse;whiteSpace=wrap;html=1;aspect=fixed;fillColor=#ffced1;fontColor=#333333;strokeColor=#ffced1;gradientColor=none;" vertex="1" parent="1">
          <mxGeometry x="480" y="487.88" width="10" height="10" as="geometry" />
        </mxCell>
        <mxCell id="85VeoSjO9mp2CwGxO-GM-194" value="" style="ellipse;whiteSpace=wrap;html=1;aspect=fixed;fillColor=#f5f5f5;fontColor=#333333;strokeColor=#ffced1;gradientColor=none;" vertex="1" parent="1">
          <mxGeometry x="510" y="477.88" width="10" height="10" as="geometry" />
        </mxCell>
        <mxCell id="85VeoSjO9mp2CwGxO-GM-195" value="" style="ellipse;whiteSpace=wrap;html=1;aspect=fixed;fillColor=#ffced1;fontColor=#333333;strokeColor=#ffced1;gradientColor=none;" vertex="1" parent="1">
          <mxGeometry x="550" y="477.88" width="10" height="10" as="geometry" />
        </mxCell>
        <mxCell id="85VeoSjO9mp2CwGxO-GM-196" value="" style="ellipse;whiteSpace=wrap;html=1;aspect=fixed;fillColor=#76addc;fontColor=#333333;strokeColor=#76addc;gradientColor=none;" vertex="1" parent="1">
          <mxGeometry x="430" y="547.88" width="10" height="10" as="geometry" />
        </mxCell>
        <mxCell id="85VeoSjO9mp2CwGxO-GM-197" value="" style="ellipse;whiteSpace=wrap;html=1;aspect=fixed;fillColor=#76addc;fontColor=#333333;strokeColor=#76addc;gradientColor=none;" vertex="1" parent="1">
          <mxGeometry x="440" y="577.88" width="10" height="10" as="geometry" />
        </mxCell>
        <mxCell id="85VeoSjO9mp2CwGxO-GM-198" value="" style="ellipse;whiteSpace=wrap;html=1;aspect=fixed;fillColor=#76addc;fontColor=#333333;strokeColor=#76addc;gradientColor=none;" vertex="1" parent="1">
          <mxGeometry x="480" y="567.88" width="10" height="10" as="geometry" />
        </mxCell>
        <mxCell id="85VeoSjO9mp2CwGxO-GM-199" value="" style="ellipse;whiteSpace=wrap;html=1;aspect=fixed;fillColor=#cce290;fontColor=#333333;strokeColor=#cce290;gradientColor=none;" vertex="1" parent="1">
          <mxGeometry x="600" y="527.88" width="10" height="10" as="geometry" />
        </mxCell>
        <mxCell id="85VeoSjO9mp2CwGxO-GM-200" value="" style="ellipse;whiteSpace=wrap;html=1;aspect=fixed;fillColor=#cce290;fontColor=#333333;strokeColor=#cce290;gradientColor=none;" vertex="1" parent="1">
          <mxGeometry x="630" y="537.88" width="10" height="10" as="geometry" />
        </mxCell>
        <mxCell id="85VeoSjO9mp2CwGxO-GM-201" value="" style="ellipse;whiteSpace=wrap;html=1;aspect=fixed;fillColor=#f5f5f5;fontColor=#333333;strokeColor=#cce290;gradientColor=none;" vertex="1" parent="1">
          <mxGeometry x="610" y="557.88" width="10" height="10" as="geometry" />
        </mxCell>
        <mxCell id="85VeoSjO9mp2CwGxO-GM-202" value="" style="ellipse;whiteSpace=wrap;html=1;aspect=fixed;fillColor=#cce290;fontColor=#333333;strokeColor=#cce290;gradientColor=none;" vertex="1" parent="1">
          <mxGeometry x="640" y="567.88" width="10" height="10" as="geometry" />
        </mxCell>
        <mxCell id="85VeoSjO9mp2CwGxO-GM-203" value="" style="ellipse;whiteSpace=wrap;html=1;aspect=fixed;fillColor=#cce290;fontColor=#333333;strokeColor=#cce290;gradientColor=none;" vertex="1" parent="1">
          <mxGeometry x="590" y="577.88" width="10" height="10" as="geometry" />
        </mxCell>
        <mxCell id="85VeoSjO9mp2CwGxO-GM-204" value="" style="ellipse;whiteSpace=wrap;html=1;aspect=fixed;fillColor=#f5f5f5;fontColor=#333333;strokeColor=#cce290;gradientColor=none;" vertex="1" parent="1">
          <mxGeometry x="620" y="567.88" width="10" height="10" as="geometry" />
        </mxCell>
        <mxCell id="85VeoSjO9mp2CwGxO-GM-205" value="&lt;span style=&quot;font-size: 18px;&quot;&gt;......&lt;/span&gt;" style="text;html=1;align=center;verticalAlign=middle;whiteSpace=wrap;rounded=0;fontColor=#f0a30a;" vertex="1" parent="1">
          <mxGeometry x="517.5" y="527.88" width="40" height="20" as="geometry" />
        </mxCell>
        <mxCell id="85VeoSjO9mp2CwGxO-GM-206" value="Determining the Convex Hull" style="text;html=1;align=center;verticalAlign=middle;whiteSpace=wrap;rounded=0;fontSize=20;fontColor=#333333;" vertex="1" parent="1">
          <mxGeometry x="410" y="414.88" width="260" height="30" as="geometry" />
        </mxCell>
        <mxCell id="85VeoSjO9mp2CwGxO-GM-210" value="" style="shape=flexArrow;endArrow=classic;html=1;rounded=0;fillColor=#cce5ff;strokeColor=none;" edge="1" parent="1">
          <mxGeometry width="50" height="50" relative="1" as="geometry">
            <mxPoint x="670" y="324.8399999999999" as="sourcePoint" />
            <mxPoint x="710" y="324.84000000000003" as="targetPoint" />
          </mxGeometry>
        </mxCell>
        <mxCell id="85VeoSjO9mp2CwGxO-GM-213" value="" style="rounded=1;whiteSpace=wrap;html=1;fillColor=none;strokeColor=#67ab9f;strokeWidth=2;" vertex="1" parent="1">
          <mxGeometry x="690" y="410.13" width="280" height="199.75" as="geometry" />
        </mxCell>
        <mxCell id="85VeoSjO9mp2CwGxO-GM-214" value="" style="rounded=1;whiteSpace=wrap;html=1;strokeColor=#f5f5f5;strokeWidth=1;shadow=1;" vertex="1" parent="1">
          <mxGeometry x="700" y="449.88" width="260" height="150" as="geometry" />
        </mxCell>
        <mxCell id="85VeoSjO9mp2CwGxO-GM-215" value="" style="rounded=1;whiteSpace=wrap;html=1;fillColor=none;dashed=1;dashPattern=8 8;strokeColor=#f0a30a;strokeWidth=2;" vertex="1" parent="1">
          <mxGeometry x="807.5" y="529.88" width="42.5" height="20" as="geometry" />
        </mxCell>
        <mxCell id="85VeoSjO9mp2CwGxO-GM-216" value="" style="rounded=1;whiteSpace=wrap;html=1;fillColor=none;dashed=1;dashPattern=8 8;strokeColor=#cce290;strokeWidth=2;" vertex="1" parent="1">
          <mxGeometry x="870" y="519.88" width="80" height="75" as="geometry" />
        </mxCell>
        <mxCell id="85VeoSjO9mp2CwGxO-GM-217" value="" style="rounded=1;whiteSpace=wrap;html=1;fillColor=none;dashed=1;dashPattern=8 8;strokeColor=#76addc;strokeWidth=2;" vertex="1" parent="1">
          <mxGeometry x="710" y="539.88" width="80" height="55" as="geometry" />
        </mxCell>
        <mxCell id="85VeoSjO9mp2CwGxO-GM-218" value="" style="rounded=1;whiteSpace=wrap;html=1;fillColor=none;dashed=1;dashPattern=8 8;strokeColor=#ffced1;strokeWidth=2;" vertex="1" parent="1">
          <mxGeometry x="765" y="449.88" width="95" height="60" as="geometry" />
        </mxCell>
        <mxCell id="85VeoSjO9mp2CwGxO-GM-219" value="" style="ellipse;whiteSpace=wrap;html=1;aspect=fixed;fillColor=#ffced1;fontColor=#333333;strokeColor=#ffced1;gradientColor=none;" vertex="1" parent="1">
          <mxGeometry x="790" y="459.88" width="10" height="10" as="geometry" />
        </mxCell>
        <mxCell id="85VeoSjO9mp2CwGxO-GM-220" value="" style="ellipse;whiteSpace=wrap;html=1;aspect=fixed;fillColor=#ffced1;fontColor=#333333;strokeColor=#ffced1;gradientColor=none;" vertex="1" parent="1">
          <mxGeometry x="770" y="489.88" width="10" height="10" as="geometry" />
        </mxCell>
        <mxCell id="85VeoSjO9mp2CwGxO-GM-221" value="" style="ellipse;whiteSpace=wrap;html=1;aspect=fixed;fillColor=#f5f5f5;fontColor=#333333;strokeColor=#ffced1;gradientColor=none;" vertex="1" parent="1">
          <mxGeometry x="800" y="479.88" width="10" height="10" as="geometry" />
        </mxCell>
        <mxCell id="85VeoSjO9mp2CwGxO-GM-222" value="" style="ellipse;whiteSpace=wrap;html=1;aspect=fixed;fillColor=#ffced1;fontColor=#333333;strokeColor=#ffced1;gradientColor=none;" vertex="1" parent="1">
          <mxGeometry x="840" y="479.88" width="10" height="10" as="geometry" />
        </mxCell>
        <mxCell id="85VeoSjO9mp2CwGxO-GM-223" value="" style="ellipse;whiteSpace=wrap;html=1;aspect=fixed;fillColor=#76addc;fontColor=#333333;strokeColor=#76addc;gradientColor=none;" vertex="1" parent="1">
          <mxGeometry x="720" y="549.88" width="10" height="10" as="geometry" />
        </mxCell>
        <mxCell id="85VeoSjO9mp2CwGxO-GM-224" value="" style="ellipse;whiteSpace=wrap;html=1;aspect=fixed;fillColor=#76addc;fontColor=#333333;strokeColor=#76addc;gradientColor=none;" vertex="1" parent="1">
          <mxGeometry x="730" y="579.88" width="10" height="10" as="geometry" />
        </mxCell>
        <mxCell id="85VeoSjO9mp2CwGxO-GM-225" value="" style="ellipse;whiteSpace=wrap;html=1;aspect=fixed;fillColor=#76addc;fontColor=#333333;strokeColor=#76addc;gradientColor=none;" vertex="1" parent="1">
          <mxGeometry x="770" y="569.88" width="10" height="10" as="geometry" />
        </mxCell>
        <mxCell id="85VeoSjO9mp2CwGxO-GM-226" value="" style="ellipse;whiteSpace=wrap;html=1;aspect=fixed;fillColor=#cce290;fontColor=#333333;strokeColor=#cce290;gradientColor=none;" vertex="1" parent="1">
          <mxGeometry x="890" y="529.88" width="10" height="10" as="geometry" />
        </mxCell>
        <mxCell id="85VeoSjO9mp2CwGxO-GM-227" value="" style="ellipse;whiteSpace=wrap;html=1;aspect=fixed;fillColor=#cce290;fontColor=#333333;strokeColor=#cce290;gradientColor=none;" vertex="1" parent="1">
          <mxGeometry x="920" y="539.88" width="10" height="10" as="geometry" />
        </mxCell>
        <mxCell id="85VeoSjO9mp2CwGxO-GM-228" value="" style="ellipse;whiteSpace=wrap;html=1;aspect=fixed;fillColor=#f5f5f5;fontColor=#333333;strokeColor=#cce290;gradientColor=none;" vertex="1" parent="1">
          <mxGeometry x="900" y="559.88" width="10" height="10" as="geometry" />
        </mxCell>
        <mxCell id="85VeoSjO9mp2CwGxO-GM-229" value="" style="ellipse;whiteSpace=wrap;html=1;aspect=fixed;fillColor=#cce290;fontColor=#333333;strokeColor=#cce290;gradientColor=none;" vertex="1" parent="1">
          <mxGeometry x="930" y="569.88" width="10" height="10" as="geometry" />
        </mxCell>
        <mxCell id="85VeoSjO9mp2CwGxO-GM-230" value="" style="ellipse;whiteSpace=wrap;html=1;aspect=fixed;fillColor=#cce290;fontColor=#333333;strokeColor=#cce290;gradientColor=none;" vertex="1" parent="1">
          <mxGeometry x="880" y="579.88" width="10" height="10" as="geometry" />
        </mxCell>
        <mxCell id="85VeoSjO9mp2CwGxO-GM-231" value="" style="ellipse;whiteSpace=wrap;html=1;aspect=fixed;fillColor=#f5f5f5;fontColor=#333333;strokeColor=#cce290;gradientColor=none;" vertex="1" parent="1">
          <mxGeometry x="910" y="569.88" width="10" height="10" as="geometry" />
        </mxCell>
        <mxCell id="85VeoSjO9mp2CwGxO-GM-232" value="&lt;span style=&quot;font-size: 18px;&quot;&gt;......&lt;/span&gt;" style="text;html=1;align=center;verticalAlign=middle;whiteSpace=wrap;rounded=0;fontColor=#f0a30a;" vertex="1" parent="1">
          <mxGeometry x="807.5" y="529.88" width="40" height="20" as="geometry" />
        </mxCell>
        <mxCell id="85VeoSjO9mp2CwGxO-GM-233" value="Arranging Sequence in each Cluster" style="text;html=1;align=center;verticalAlign=middle;whiteSpace=wrap;rounded=0;fontSize=16;fontColor=#333333;" vertex="1" parent="1">
          <mxGeometry x="700" y="414.63" width="260" height="30" as="geometry" />
        </mxCell>
        <mxCell id="85VeoSjO9mp2CwGxO-GM-234" value="" style="endArrow=none;html=1;rounded=0;strokeColor=#333333;entryX=0;entryY=1;entryDx=0;entryDy=0;exitX=1;exitY=0;exitDx=0;exitDy=0;" edge="1" parent="1" source="85VeoSjO9mp2CwGxO-GM-220" target="85VeoSjO9mp2CwGxO-GM-219">
          <mxGeometry width="50" height="50" relative="1" as="geometry">
            <mxPoint x="650" y="576.88" as="sourcePoint" />
            <mxPoint x="700" y="526.88" as="targetPoint" />
          </mxGeometry>
        </mxCell>
        <mxCell id="85VeoSjO9mp2CwGxO-GM-235" value="" style="endArrow=none;html=1;rounded=0;strokeColor=#333333;entryX=1;entryY=1;entryDx=0;entryDy=0;exitX=0.5;exitY=0;exitDx=0;exitDy=0;" edge="1" parent="1" source="85VeoSjO9mp2CwGxO-GM-221" target="85VeoSjO9mp2CwGxO-GM-219">
          <mxGeometry width="50" height="50" relative="1" as="geometry">
            <mxPoint x="789" y="500.88" as="sourcePoint" />
            <mxPoint x="801" y="478.88" as="targetPoint" />
          </mxGeometry>
        </mxCell>
        <mxCell id="85VeoSjO9mp2CwGxO-GM-236" value="" style="endArrow=none;html=1;rounded=0;strokeColor=#333333;entryX=0;entryY=0.5;entryDx=0;entryDy=0;exitX=1;exitY=0.5;exitDx=0;exitDy=0;" edge="1" parent="1" source="85VeoSjO9mp2CwGxO-GM-221" target="85VeoSjO9mp2CwGxO-GM-222">
          <mxGeometry width="50" height="50" relative="1" as="geometry">
            <mxPoint x="799" y="510.88" as="sourcePoint" />
            <mxPoint x="811" y="488.88" as="targetPoint" />
          </mxGeometry>
        </mxCell>
        <mxCell id="85VeoSjO9mp2CwGxO-GM-237" value="" style="endArrow=none;html=1;rounded=0;strokeColor=#333333;entryX=1;entryY=1;entryDx=0;entryDy=0;exitX=0.5;exitY=0;exitDx=0;exitDy=0;" edge="1" parent="1" source="85VeoSjO9mp2CwGxO-GM-224" target="85VeoSjO9mp2CwGxO-GM-223">
          <mxGeometry width="50" height="50" relative="1" as="geometry">
            <mxPoint x="809" y="520.88" as="sourcePoint" />
            <mxPoint x="821" y="498.88" as="targetPoint" />
          </mxGeometry>
        </mxCell>
        <mxCell id="85VeoSjO9mp2CwGxO-GM-238" value="" style="endArrow=none;html=1;rounded=0;strokeColor=#333333;entryX=0;entryY=0.5;entryDx=0;entryDy=0;exitX=1;exitY=0.5;exitDx=0;exitDy=0;" edge="1" parent="1" source="85VeoSjO9mp2CwGxO-GM-224" target="85VeoSjO9mp2CwGxO-GM-225">
          <mxGeometry width="50" height="50" relative="1" as="geometry">
            <mxPoint x="819" y="530.88" as="sourcePoint" />
            <mxPoint x="831" y="508.88" as="targetPoint" />
          </mxGeometry>
        </mxCell>
        <mxCell id="85VeoSjO9mp2CwGxO-GM-239" value="" style="endArrow=none;html=1;rounded=0;strokeColor=#333333;entryX=0;entryY=0;entryDx=0;entryDy=0;exitX=1;exitY=0.5;exitDx=0;exitDy=0;" edge="1" parent="1" source="85VeoSjO9mp2CwGxO-GM-226" target="85VeoSjO9mp2CwGxO-GM-227">
          <mxGeometry width="50" height="50" relative="1" as="geometry">
            <mxPoint x="829" y="540.88" as="sourcePoint" />
            <mxPoint x="841" y="518.88" as="targetPoint" />
          </mxGeometry>
        </mxCell>
        <mxCell id="85VeoSjO9mp2CwGxO-GM-240" value="" style="endArrow=none;html=1;rounded=0;strokeColor=#333333;entryX=0.5;entryY=0;entryDx=0;entryDy=0;exitX=1;exitY=1;exitDx=0;exitDy=0;" edge="1" parent="1" source="85VeoSjO9mp2CwGxO-GM-227" target="85VeoSjO9mp2CwGxO-GM-229">
          <mxGeometry width="50" height="50" relative="1" as="geometry">
            <mxPoint x="839" y="550.88" as="sourcePoint" />
            <mxPoint x="851" y="528.88" as="targetPoint" />
          </mxGeometry>
        </mxCell>
        <mxCell id="85VeoSjO9mp2CwGxO-GM-241" value="" style="endArrow=none;html=1;rounded=0;strokeColor=#333333;entryX=0;entryY=0.5;entryDx=0;entryDy=0;exitX=1;exitY=0.5;exitDx=0;exitDy=0;" edge="1" parent="1" source="85VeoSjO9mp2CwGxO-GM-231" target="85VeoSjO9mp2CwGxO-GM-229">
          <mxGeometry width="50" height="50" relative="1" as="geometry">
            <mxPoint x="849" y="560.88" as="sourcePoint" />
            <mxPoint x="861" y="538.88" as="targetPoint" />
          </mxGeometry>
        </mxCell>
        <mxCell id="85VeoSjO9mp2CwGxO-GM-242" value="" style="endArrow=none;html=1;rounded=0;strokeColor=#333333;entryX=0;entryY=0;entryDx=0;entryDy=0;exitX=1;exitY=1;exitDx=0;exitDy=0;" edge="1" parent="1" source="85VeoSjO9mp2CwGxO-GM-228" target="85VeoSjO9mp2CwGxO-GM-231">
          <mxGeometry width="50" height="50" relative="1" as="geometry">
            <mxPoint x="859" y="570.88" as="sourcePoint" />
            <mxPoint x="871" y="548.88" as="targetPoint" />
          </mxGeometry>
        </mxCell>
        <mxCell id="85VeoSjO9mp2CwGxO-GM-243" value="" style="endArrow=none;html=1;rounded=0;strokeColor=#333333;entryX=0;entryY=1;entryDx=0;entryDy=0;exitX=1;exitY=0;exitDx=0;exitDy=0;" edge="1" parent="1" source="85VeoSjO9mp2CwGxO-GM-230" target="85VeoSjO9mp2CwGxO-GM-228">
          <mxGeometry width="50" height="50" relative="1" as="geometry">
            <mxPoint x="869" y="580.88" as="sourcePoint" />
            <mxPoint x="881" y="558.88" as="targetPoint" />
          </mxGeometry>
        </mxCell>
        <mxCell id="85VeoSjO9mp2CwGxO-GM-244" value="" style="rounded=1;whiteSpace=wrap;html=1;fillColor=none;strokeColor=#b0e3e6;strokeWidth=2;" vertex="1" parent="1">
          <mxGeometry x="980" y="316.5" width="280" height="193.5" as="geometry" />
        </mxCell>
        <mxCell id="85VeoSjO9mp2CwGxO-GM-245" value="" style="rounded=1;whiteSpace=wrap;html=1;strokeColor=#f5f5f5;strokeWidth=1;shadow=1;" vertex="1" parent="1">
          <mxGeometry x="990" y="349.88" width="260" height="150" as="geometry" />
        </mxCell>
        <mxCell id="85VeoSjO9mp2CwGxO-GM-250" value="" style="ellipse;whiteSpace=wrap;html=1;aspect=fixed;fillColor=#f5f5f5;fontColor=#333333;strokeColor=#647687;gradientColor=none;" vertex="1" parent="1">
          <mxGeometry x="1080" y="359.88" width="10" height="10" as="geometry" />
        </mxCell>
        <mxCell id="85VeoSjO9mp2CwGxO-GM-251" value="" style="ellipse;whiteSpace=wrap;html=1;aspect=fixed;fillColor=#f5f5f5;fontColor=#333333;strokeColor=#647687;gradientColor=none;" vertex="1" parent="1">
          <mxGeometry x="1060" y="389.88" width="10" height="10" as="geometry" />
        </mxCell>
        <mxCell id="85VeoSjO9mp2CwGxO-GM-252" value="" style="ellipse;whiteSpace=wrap;html=1;aspect=fixed;fillColor=#f5f5f5;fontColor=#333333;strokeColor=#647687;gradientColor=none;" vertex="1" parent="1">
          <mxGeometry x="1090" y="379.88" width="10" height="10" as="geometry" />
        </mxCell>
        <mxCell id="85VeoSjO9mp2CwGxO-GM-253" value="" style="ellipse;whiteSpace=wrap;html=1;aspect=fixed;fillColor=#f5f5f5;fontColor=#333333;strokeColor=#647687;gradientColor=none;" vertex="1" parent="1">
          <mxGeometry x="1130" y="379.88" width="10" height="10" as="geometry" />
        </mxCell>
        <mxCell id="85VeoSjO9mp2CwGxO-GM-254" value="" style="ellipse;whiteSpace=wrap;html=1;aspect=fixed;fillColor=#f5f5f5;fontColor=#333333;strokeColor=#647687;gradientColor=none;" vertex="1" parent="1">
          <mxGeometry x="1010" y="449.88" width="10" height="10" as="geometry" />
        </mxCell>
        <mxCell id="85VeoSjO9mp2CwGxO-GM-255" value="" style="ellipse;whiteSpace=wrap;html=1;aspect=fixed;fillColor=#f5f5f5;fontColor=#333333;strokeColor=#647687;gradientColor=none;" vertex="1" parent="1">
          <mxGeometry x="1020" y="479.88" width="10" height="10" as="geometry" />
        </mxCell>
        <mxCell id="85VeoSjO9mp2CwGxO-GM-256" value="" style="ellipse;whiteSpace=wrap;html=1;aspect=fixed;fillColor=#f5f5f5;fontColor=#333333;strokeColor=#647687;gradientColor=none;" vertex="1" parent="1">
          <mxGeometry x="1060" y="469.88" width="10" height="10" as="geometry" />
        </mxCell>
        <mxCell id="85VeoSjO9mp2CwGxO-GM-257" value="" style="ellipse;whiteSpace=wrap;html=1;aspect=fixed;fillColor=#f5f5f5;fontColor=#333333;strokeColor=#647687;gradientColor=none;" vertex="1" parent="1">
          <mxGeometry x="1180" y="429.88" width="10" height="10" as="geometry" />
        </mxCell>
        <mxCell id="85VeoSjO9mp2CwGxO-GM-258" value="" style="ellipse;whiteSpace=wrap;html=1;aspect=fixed;fillColor=#f5f5f5;fontColor=#333333;strokeColor=#647687;gradientColor=none;" vertex="1" parent="1">
          <mxGeometry x="1210" y="439.88" width="10" height="10" as="geometry" />
        </mxCell>
        <mxCell id="85VeoSjO9mp2CwGxO-GM-259" value="" style="ellipse;whiteSpace=wrap;html=1;aspect=fixed;fillColor=#f5f5f5;fontColor=#333333;strokeColor=#647687;gradientColor=none;" vertex="1" parent="1">
          <mxGeometry x="1190" y="459.88" width="10" height="10" as="geometry" />
        </mxCell>
        <mxCell id="85VeoSjO9mp2CwGxO-GM-260" value="" style="ellipse;whiteSpace=wrap;html=1;aspect=fixed;fillColor=#f5f5f5;fontColor=#333333;strokeColor=#647687;gradientColor=none;" vertex="1" parent="1">
          <mxGeometry x="1220" y="469.88" width="10" height="10" as="geometry" />
        </mxCell>
        <mxCell id="85VeoSjO9mp2CwGxO-GM-261" value="" style="ellipse;whiteSpace=wrap;html=1;aspect=fixed;fillColor=#f5f5f5;fontColor=#333333;strokeColor=#647687;gradientColor=none;" vertex="1" parent="1">
          <mxGeometry x="1170" y="479.88" width="10" height="10" as="geometry" />
        </mxCell>
        <mxCell id="85VeoSjO9mp2CwGxO-GM-262" value="" style="ellipse;whiteSpace=wrap;html=1;aspect=fixed;fillColor=#f5f5f5;fontColor=#333333;strokeColor=#647687;gradientColor=none;" vertex="1" parent="1">
          <mxGeometry x="1200" y="469.88" width="10" height="10" as="geometry" />
        </mxCell>
        <mxCell id="85VeoSjO9mp2CwGxO-GM-263" value="&lt;span style=&quot;font-size: 18px;&quot;&gt;......&lt;/span&gt;" style="text;html=1;align=center;verticalAlign=middle;whiteSpace=wrap;rounded=0;fontColor=#647687;labelPosition=center;verticalLabelPosition=middle;strokeColor=#647687;dashed=1;dashPattern=1 1;" vertex="1" parent="1">
          <mxGeometry x="1110" y="434.38" width="40" height="12.5" as="geometry" />
        </mxCell>
        <mxCell id="85VeoSjO9mp2CwGxO-GM-264" value="Aggregation" style="text;html=1;align=center;verticalAlign=middle;whiteSpace=wrap;rounded=0;fontSize=20;fontColor=#333333;" vertex="1" parent="1">
          <mxGeometry x="990" y="315.5" width="260" height="30" as="geometry" />
        </mxCell>
        <mxCell id="85VeoSjO9mp2CwGxO-GM-265" value="" style="endArrow=none;html=1;rounded=0;strokeColor=#333333;entryX=0;entryY=1;entryDx=0;entryDy=0;exitX=1;exitY=0;exitDx=0;exitDy=0;" edge="1" parent="1" source="85VeoSjO9mp2CwGxO-GM-251" target="85VeoSjO9mp2CwGxO-GM-250">
          <mxGeometry width="50" height="50" relative="1" as="geometry">
            <mxPoint x="940" y="476.88" as="sourcePoint" />
            <mxPoint x="990" y="426.88" as="targetPoint" />
          </mxGeometry>
        </mxCell>
        <mxCell id="85VeoSjO9mp2CwGxO-GM-266" value="" style="endArrow=none;html=1;rounded=0;strokeColor=#333333;entryX=1;entryY=1;entryDx=0;entryDy=0;exitX=0.5;exitY=0;exitDx=0;exitDy=0;" edge="1" parent="1" source="85VeoSjO9mp2CwGxO-GM-252" target="85VeoSjO9mp2CwGxO-GM-250">
          <mxGeometry width="50" height="50" relative="1" as="geometry">
            <mxPoint x="1079" y="400.88" as="sourcePoint" />
            <mxPoint x="1091" y="378.88" as="targetPoint" />
          </mxGeometry>
        </mxCell>
        <mxCell id="85VeoSjO9mp2CwGxO-GM-267" value="" style="endArrow=none;html=1;rounded=0;strokeColor=#333333;entryX=0;entryY=0.5;entryDx=0;entryDy=0;exitX=1;exitY=0.5;exitDx=0;exitDy=0;" edge="1" parent="1" source="85VeoSjO9mp2CwGxO-GM-252" target="85VeoSjO9mp2CwGxO-GM-253">
          <mxGeometry width="50" height="50" relative="1" as="geometry">
            <mxPoint x="1089" y="410.88" as="sourcePoint" />
            <mxPoint x="1101" y="388.88" as="targetPoint" />
          </mxGeometry>
        </mxCell>
        <mxCell id="85VeoSjO9mp2CwGxO-GM-268" value="" style="endArrow=none;html=1;rounded=0;strokeColor=#333333;entryX=1;entryY=1;entryDx=0;entryDy=0;exitX=0.5;exitY=0;exitDx=0;exitDy=0;" edge="1" parent="1" source="85VeoSjO9mp2CwGxO-GM-255" target="85VeoSjO9mp2CwGxO-GM-254">
          <mxGeometry width="50" height="50" relative="1" as="geometry">
            <mxPoint x="1099" y="420.88" as="sourcePoint" />
            <mxPoint x="1111" y="398.88" as="targetPoint" />
          </mxGeometry>
        </mxCell>
        <mxCell id="85VeoSjO9mp2CwGxO-GM-269" value="" style="endArrow=none;html=1;rounded=0;strokeColor=#333333;entryX=0;entryY=0.5;entryDx=0;entryDy=0;exitX=1;exitY=0.5;exitDx=0;exitDy=0;" edge="1" parent="1" source="85VeoSjO9mp2CwGxO-GM-255" target="85VeoSjO9mp2CwGxO-GM-256">
          <mxGeometry width="50" height="50" relative="1" as="geometry">
            <mxPoint x="1109" y="430.88" as="sourcePoint" />
            <mxPoint x="1121" y="408.88" as="targetPoint" />
          </mxGeometry>
        </mxCell>
        <mxCell id="85VeoSjO9mp2CwGxO-GM-270" value="" style="endArrow=none;html=1;rounded=0;strokeColor=#333333;entryX=0;entryY=0;entryDx=0;entryDy=0;exitX=1;exitY=0.5;exitDx=0;exitDy=0;" edge="1" parent="1" source="85VeoSjO9mp2CwGxO-GM-257" target="85VeoSjO9mp2CwGxO-GM-258">
          <mxGeometry width="50" height="50" relative="1" as="geometry">
            <mxPoint x="1119" y="440.88" as="sourcePoint" />
            <mxPoint x="1131" y="418.88" as="targetPoint" />
          </mxGeometry>
        </mxCell>
        <mxCell id="85VeoSjO9mp2CwGxO-GM-271" value="" style="endArrow=none;html=1;rounded=0;strokeColor=#333333;entryX=0.5;entryY=0;entryDx=0;entryDy=0;exitX=1;exitY=1;exitDx=0;exitDy=0;" edge="1" parent="1" source="85VeoSjO9mp2CwGxO-GM-258" target="85VeoSjO9mp2CwGxO-GM-260">
          <mxGeometry width="50" height="50" relative="1" as="geometry">
            <mxPoint x="1129" y="450.88" as="sourcePoint" />
            <mxPoint x="1141" y="428.88" as="targetPoint" />
          </mxGeometry>
        </mxCell>
        <mxCell id="85VeoSjO9mp2CwGxO-GM-272" value="" style="endArrow=none;html=1;rounded=0;strokeColor=#333333;entryX=0;entryY=0.5;entryDx=0;entryDy=0;exitX=1;exitY=0.5;exitDx=0;exitDy=0;" edge="1" parent="1" source="85VeoSjO9mp2CwGxO-GM-262" target="85VeoSjO9mp2CwGxO-GM-260">
          <mxGeometry width="50" height="50" relative="1" as="geometry">
            <mxPoint x="1139" y="460.88" as="sourcePoint" />
            <mxPoint x="1151" y="438.88" as="targetPoint" />
          </mxGeometry>
        </mxCell>
        <mxCell id="85VeoSjO9mp2CwGxO-GM-273" value="" style="endArrow=none;html=1;rounded=0;strokeColor=#333333;entryX=0;entryY=0;entryDx=0;entryDy=0;exitX=1;exitY=1;exitDx=0;exitDy=0;" edge="1" parent="1" source="85VeoSjO9mp2CwGxO-GM-259" target="85VeoSjO9mp2CwGxO-GM-262">
          <mxGeometry width="50" height="50" relative="1" as="geometry">
            <mxPoint x="1149" y="470.88" as="sourcePoint" />
            <mxPoint x="1161" y="448.88" as="targetPoint" />
          </mxGeometry>
        </mxCell>
        <mxCell id="85VeoSjO9mp2CwGxO-GM-274" value="" style="endArrow=none;html=1;rounded=0;strokeColor=#333333;entryX=0;entryY=1;entryDx=0;entryDy=0;exitX=1;exitY=0;exitDx=0;exitDy=0;" edge="1" parent="1" source="85VeoSjO9mp2CwGxO-GM-261" target="85VeoSjO9mp2CwGxO-GM-259">
          <mxGeometry width="50" height="50" relative="1" as="geometry">
            <mxPoint x="1159" y="480.88" as="sourcePoint" />
            <mxPoint x="1171" y="458.88" as="targetPoint" />
          </mxGeometry>
        </mxCell>
        <mxCell id="85VeoSjO9mp2CwGxO-GM-275" value="" style="endArrow=none;html=1;rounded=0;strokeColor=#333333;entryX=0;entryY=1;entryDx=0;entryDy=0;exitX=1;exitY=0;exitDx=0;exitDy=0;" edge="1" parent="1" source="85VeoSjO9mp2CwGxO-GM-254" target="85VeoSjO9mp2CwGxO-GM-251">
          <mxGeometry width="50" height="50" relative="1" as="geometry">
            <mxPoint x="1079" y="401.38" as="sourcePoint" />
            <mxPoint x="1091" y="378.38" as="targetPoint" />
          </mxGeometry>
        </mxCell>
        <mxCell id="85VeoSjO9mp2CwGxO-GM-276" value="" style="endArrow=none;html=1;rounded=0;strokeColor=#333333;entryX=0;entryY=0.5;entryDx=0;entryDy=0;exitX=1;exitY=0.5;exitDx=0;exitDy=0;" edge="1" parent="1" source="85VeoSjO9mp2CwGxO-GM-256" target="85VeoSjO9mp2CwGxO-GM-261">
          <mxGeometry width="50" height="50" relative="1" as="geometry">
            <mxPoint x="1089" y="411.38" as="sourcePoint" />
            <mxPoint x="1101" y="388.38" as="targetPoint" />
          </mxGeometry>
        </mxCell>
        <mxCell id="85VeoSjO9mp2CwGxO-GM-277" value="" style="endArrow=none;html=1;rounded=0;strokeColor=#333333;entryX=0;entryY=0.5;entryDx=0;entryDy=0;exitX=1;exitY=0.75;exitDx=0;exitDy=0;" edge="1" parent="1" source="85VeoSjO9mp2CwGxO-GM-263" target="85VeoSjO9mp2CwGxO-GM-257">
          <mxGeometry width="50" height="50" relative="1" as="geometry">
            <mxPoint x="1099" y="421.38" as="sourcePoint" />
            <mxPoint x="1111" y="398.38" as="targetPoint" />
          </mxGeometry>
        </mxCell>
        <mxCell id="85VeoSjO9mp2CwGxO-GM-278" value="" style="endArrow=none;html=1;rounded=0;strokeColor=#333333;entryX=0.5;entryY=1;entryDx=0;entryDy=0;exitX=0.5;exitY=0;exitDx=0;exitDy=0;" edge="1" parent="1" source="85VeoSjO9mp2CwGxO-GM-263" target="85VeoSjO9mp2CwGxO-GM-253">
          <mxGeometry width="50" height="50" relative="1" as="geometry">
            <mxPoint x="1109" y="431.38" as="sourcePoint" />
            <mxPoint x="1121" y="408.38" as="targetPoint" />
          </mxGeometry>
        </mxCell>
        <mxCell id="85VeoSjO9mp2CwGxO-GM-279" value="" style="shape=flexArrow;endArrow=classic;html=1;rounded=0;fillColor=#cce5ff;strokeColor=none;" edge="1" parent="1">
          <mxGeometry width="50" height="50" relative="1" as="geometry">
            <mxPoint x="380" y="507.0799999999999" as="sourcePoint" />
            <mxPoint x="420" y="507.08000000000004" as="targetPoint" />
          </mxGeometry>
        </mxCell>
        <mxCell id="85VeoSjO9mp2CwGxO-GM-280" value="" style="shape=flexArrow;endArrow=classic;html=1;rounded=0;fillColor=#cce5ff;strokeColor=none;" edge="1" parent="1">
          <mxGeometry width="50" height="50" relative="1" as="geometry">
            <mxPoint x="670" y="507.87999999999994" as="sourcePoint" />
            <mxPoint x="710" y="507.88000000000005" as="targetPoint" />
          </mxGeometry>
        </mxCell>
        <mxCell id="85VeoSjO9mp2CwGxO-GM-281" value="" style="shape=flexArrow;endArrow=classic;html=1;rounded=0;fillColor=#cce5ff;strokeColor=none;" edge="1" parent="1">
          <mxGeometry width="50" height="50" relative="1" as="geometry">
            <mxPoint x="960" y="319.9999999999999" as="sourcePoint" />
            <mxPoint x="1000" y="340" as="targetPoint" />
          </mxGeometry>
        </mxCell>
        <mxCell id="85VeoSjO9mp2CwGxO-GM-283" value="" style="shape=flexArrow;endArrow=classic;html=1;rounded=0;fillColor=#cce5ff;strokeColor=none;" edge="1" parent="1">
          <mxGeometry width="50" height="50" relative="1" as="geometry">
            <mxPoint x="960" y="507.8799999999999" as="sourcePoint" />
            <mxPoint x="995" y="477.88" as="targetPoint" />
          </mxGeometry>
        </mxCell>
      </root>
    </mxGraphModel>
  </diagram>
</mxfile>
